<svg width="40.000000" height="40.000000" viewBox="0 0 40 40" fill="none" xmlns="http://www.w3.org/2000/svg" xmlns:xlink="http://www.w3.org/1999/xlink">
	<desc>
			Created with Pixso.
	</desc>
	<defs/>
	<rect id="vuesax/bulk/sun-fog" width="40.000000" height="40.000000" fill="#FFFFFF" fill-opacity="0"/>
	<g opacity="0.000000"/>
	<path id="Vector" d="M30.7999 20.4167C31.2666 20.4167 31.6666 20.0167 31.6333 19.55C31.1833 13.5167 26.15 8.75 20 8.75C13.85 8.75 8.81671 13.5 8.3667 19.55C8.33337 20.0167 8.73334 20.4167 9.20001 20.4167L30.7999 20.4167Z" fill="#FFFFFF" fill-opacity="1.000000" fill-rule="nonzero"/>
	<path id="Vector" d="M36.6667 21.6667L36.5333 21.6667C35.6166 21.6667 34.8666 20.9167 34.8666 20C34.8666 19.0833 35.6166 18.3333 36.5333 18.3333C37.45 18.3333 38.2667 19.0833 38.2667 20C38.2667 20.9167 37.5834 21.6667 36.6667 21.6667ZM3.46674 21.6667L3.33337 21.6667C2.41669 21.6667 1.66669 20.9167 1.66669 20C1.66669 19.0833 2.41669 18.3333 3.33337 18.3333C4.25 18.3333 5.06665 19.0833 5.06665 20C5.06665 20.9167 4.38336 21.6667 3.46674 21.6667ZM31.6833 9.98337C31.2501 9.98337 30.8333 9.81668 30.5 9.5C29.85 8.85001 29.85 7.80002 30.5 7.15002L30.7167 6.93335C31.3667 6.28336 32.4167 6.28336 33.0667 6.93335C33.7167 7.58337 33.7167 8.63336 33.0667 9.28336L32.85 9.5C32.5334 9.81668 32.1167 9.98337 31.6833 9.98337ZM8.31665 9.98337C7.88336 9.98337 7.46674 9.81668 7.13342 9.5L6.91675 9.28336C6.26672 8.63336 6.26672 7.58337 6.91675 6.93335C7.56671 6.28336 8.6167 6.28336 9.26666 6.93335L9.48334 7.15002C10.1334 7.80002 10.1334 8.85001 9.48334 9.5C9.16669 9.81668 8.73334 9.98337 8.31665 9.98337ZM20 5.06668C19.0834 5.06668 18.3334 4.38336 18.3334 3.46667L18.3334 3.33334C18.3334 2.41669 19.0834 1.66669 20 1.66669C20.9167 1.66669 21.6667 2.41669 21.6667 3.33334C21.6667 4.25003 20.9167 5.06668 20 5.06668Z" fill="#FFFFFF" fill-opacity="1.000000" fill-rule="nonzero"/>
	<g opacity="0.400000">
		<path id="Vector" d="M33.3334 26.25L6.66669 26.25C5.98334 26.25 5.41669 25.6833 5.41669 25C5.41669 24.3167 5.98334 23.75 6.66669 23.75L33.3334 23.75C34.0167 23.75 34.5834 24.3167 34.5834 25C34.5834 25.6833 34.0167 26.25 33.3334 26.25Z" fill="#FFFFFF" fill-opacity="1.000000" fill-rule="nonzero"/>
	</g>
	<g opacity="0.400000">
		<path id="Vector" d="M30 31.25L10 31.25C9.31665 31.25 8.75 30.6833 8.75 30C8.75 29.3167 9.31665 28.75 10 28.75L30 28.75C30.6833 28.75 31.25 29.3167 31.25 30C31.25 30.6833 30.6833 31.25 30 31.25Z" fill="#FFFFFF" fill-opacity="1.000000" fill-rule="nonzero"/>
	</g>
	<g opacity="0.400000">
		<path id="Vector" d="M25 36.25L15 36.25C14.3167 36.25 13.75 35.6833 13.75 35C13.75 34.3167 14.3167 33.75 15 33.75L25 33.75C25.6833 33.75 26.25 34.3167 26.25 35C26.25 35.6833 25.6833 36.25 25 36.25Z" fill="#FFFFFF" fill-opacity="1.000000" fill-rule="nonzero"/>
	</g>
</svg>
