<svg width="40.000000" height="40.000000" viewBox="0 0 40 40" fill="none" xmlns="http://www.w3.org/2000/svg" xmlns:xlink="http://www.w3.org/1999/xlink">
	<desc>
			Created with Pixso.
	</desc>
	<defs/>
	<rect id="vuesax/bulk/sun" width="40.000000" height="40.000000" fill="#FFFFFF" fill-opacity="0"/>
	<g opacity="0.400000">
		<path id="Vector" d="M31.6666 20C31.6666 26.4433 26.4433 31.6667 20 31.6667C13.5566 31.6667 8.33331 26.4433 8.33331 20C8.33331 13.5567 13.5566 8.33331 20 8.33331C26.4433 8.33331 31.6666 13.5567 31.6666 20Z" fill="#FFFFFF" fill-opacity="1.000000" fill-rule="evenodd"/>
	</g>
	<path id="Vector" d="M20 38.2667C19.0834 38.2667 18.3334 37.5833 18.3334 36.6667L18.3334 36.5334C18.3334 35.6167 19.0834 34.8667 20 34.8667C20.9167 34.8667 21.6667 35.6167 21.6667 36.5334C21.6667 37.45 20.9167 38.2667 20 38.2667ZM31.9 33.5667C31.4667 33.5667 31.05 33.4 30.7167 33.0833L30.5 32.8667C29.85 32.2167 29.85 31.1667 30.5 30.5167C31.15 29.8667 32.2 29.8667 32.85 30.5167L33.0667 30.7334C33.7167 31.3834 33.7167 32.4333 33.0667 33.0833C32.75 33.4 32.3334 33.5667 31.9 33.5667ZM8.10004 33.5667C7.66669 33.5667 7.25 33.4 6.91669 33.0833C6.26666 32.4333 6.26666 31.3834 6.91669 30.7334L7.13336 30.5167C7.78333 29.8667 8.83337 29.8667 9.48334 30.5167C10.1334 31.1667 10.1334 32.2167 9.48334 32.8667L9.26666 33.0833C8.95001 33.4 8.51666 33.5667 8.10004 33.5667ZM36.6667 21.6667L36.5333 21.6667C35.6167 21.6667 34.8667 20.9167 34.8667 20C34.8667 19.0833 35.6167 18.3333 36.5333 18.3333C37.45 18.3333 38.2667 19.0833 38.2667 20C38.2667 20.9167 37.5834 21.6667 36.6667 21.6667ZM3.46667 21.6667L3.33337 21.6667C2.41669 21.6667 1.66669 20.9167 1.66669 20C1.66669 19.0833 2.41669 18.3333 3.33337 18.3333C4.25 18.3333 5.06671 19.0833 5.06671 20C5.06671 20.9167 4.38336 21.6667 3.46667 21.6667ZM31.6833 9.98334C31.25 9.98334 30.8334 9.81668 30.5 9.50003C29.85 8.85001 29.85 7.80002 30.5 7.15002L30.7167 6.93335C31.3667 6.28336 32.4167 6.28336 33.0667 6.93335C33.7167 7.58334 33.7167 8.63336 33.0667 9.28336L32.85 9.50003C32.5333 9.81668 32.1167 9.98334 31.6833 9.98334ZM8.31671 9.98334C7.88336 9.98334 7.46667 9.81668 7.13336 9.50003L6.91669 9.26669C6.26666 8.6167 6.26666 7.56668 6.91669 6.91669C7.56671 6.26669 8.6167 6.26669 9.26666 6.91669L9.48334 7.13336C10.1334 7.78336 10.1334 8.83334 9.48334 9.48337C9.16669 9.81668 8.73334 9.98334 8.31671 9.98334ZM20 5.06668C19.0834 5.06668 18.3334 4.38336 18.3334 3.46667L18.3334 3.33334C18.3334 2.41669 19.0834 1.66669 20 1.66669C20.9167 1.66669 21.6667 2.41669 21.6667 3.33334C21.6667 4.25003 20.9167 5.06668 20 5.06668Z" fill="#FFFFFF" fill-opacity="1.000000" fill-rule="nonzero"/>
	<g opacity="0.000000"/>
</svg>
