<svg width="24.000000" height="24.000000" viewBox="0 0 24 24" fill="none" xmlns="http://www.w3.org/2000/svg" xmlns:xlink="http://www.w3.org/1999/xlink">
	<desc>
			Created with Pixso.
	</desc>
	<defs/>
	<rect id="vuesax/outline/arrow-left" width="24.000000" height="24.000000" fill="#FFFFFF" fill-opacity="0"/>
	<path id="Vector" d="M9.56995 18.82C9.37994 18.82 9.18994 18.75 9.03992 18.6L2.96997 12.53C2.67993 12.24 2.67993 11.76 2.96997 11.47L9.03992 5.39999C9.32996 5.11 9.80994 5.11 10.0999 5.39999C10.39 5.69 10.39 6.17 10.0999 6.45999L4.55994 12L10.0999 17.54C10.39 17.83 10.39 18.31 10.0999 18.6C9.95996 18.75 9.75995 18.82 9.56995 18.82Z" fill="#292D32" fill-opacity="0.400000" fill-rule="nonzero"/>
	<path id="Vector" d="M20.4999 12.75L3.66992 12.75C3.25995 12.75 2.91992 12.41 2.91992 12C2.91992 11.59 3.25995 11.25 3.66992 11.25L20.4999 11.25C20.9099 11.25 21.2499 11.59 21.2499 12C21.2499 12.41 20.9099 12.75 20.4999 12.75Z" fill="#292D32" fill-opacity="0.400000" fill-rule="nonzero"/>
	<g opacity="0.000000"/>
</svg>
